<?xml version="1.0" encoding="UTF-8" standalone="no"?>
<svg id="gangoffork-logo-square-mo"
   width="512" 
   height="512"
   viewBox="0 0 511.99999 512.00001"
   version="1.1"
   xmlns:dc="http://purl.org/dc/elements/1.1/"
   xmlns:cc="http://creativecommons.org/ns#"
   xmlns:rdf="http://www.w3.org/1999/02/22-rdf-syntax-ns#"
   xmlns:svg="http://www.w3.org/2000/svg"
   xmlns="http://www.w3.org/2000/svg">
  <metadata id="gangoffork-logo-mo-square-metadata">
    <rdf:RDF>
      <cc:Work rdf:about="">
        <dc:format>image/svg+xml</dc:format>
        <dc:type rdf:resource="http://purl.org/dc/dcmitype/StillImage" />
        <dc:title />
      </cc:Work>
    </rdf:RDF>
  </metadata>
  <style type="text/css">
    #rect-1 {
      fill:#f2f2f2;
      fill-opacity:1
    }
    #shadow-1 {
      fill:#e6e6e6;
      fill-opacity:1
    }
    .fork-monochrome {
      opacity: 0.8; 
      fill: rgb(100, 100, 100);
    }
  </style>
  <rect id="rect-1" width="450" height="450" x="31.428572" y="32" />
  <path id="shadow-1"
     d="M 195.7168 105.41406 L 196.82617 115.64258 L 188.64648 110.7168 L 175.26172 110.96875 L 170.46289 144.05273 L 219.08008 172.12109 L 221.22266 190.51953 L 228.33789 214.86328 L 142.43164 165.26562 L 146.20117 178.46094 L 125.76367 171.07422 L 118.94531 182.18555 L 120.96484 206.68164 L 235.42969 272.76758 L 220.07227 298.24609 L 219.96094 293.80664 L 166.92773 290.27148 L 130.5625 302.14062 L 115.66211 311.73633 L 109.34961 337.74805 L 110.35938 344.56641 L 168.86914 378.34766 L 172.24219 397.85352 L 306.36328 475.55859 C 309.94123 477.84602 313.78175 479.99274 317.85352 482 L 481.42773 482 L 481.42773 199.29102 C 478.50107 197.37847 475.52466 195.35745 472.50391 193.21094 L 332.75586 112.52734 L 324.92578 119.28906 L 315.64062 121.75391 L 312.65039 135.78125 L 296.87695 163.81836 L 195.7168 105.41406 z M 239.37109 258.70703 L 241.42578 262.24023 L 240.32227 264.65039 L 240.01172 265.16602 L 239.37109 258.70703 z " />
  <g id="forks" transform="translate(0,-540.36216) matrix(0.60347306,0,0,0.60347306,101.15688,316.13307)">
    <path id="fork-1" class="fork-monochrome"
        d="m 380.11422,1050.956 c 10.33018,-2.7716 18.1957,-8.8322 23.59811,-18.1895 5.39994,-9.3529 6.71795,-19.1937 3.94974,-29.5248 -2.7673,-10.32772 -8.82788,-18.19323 -18.18514,-23.59565 -6.08028,-3.51045 -12.59986,-5.25064 -19.55907,-5.21502 -6.9592,0.0356 -13.38606,1.77953 -19.27998,5.24067 -6.08028,-3.51045 -11.14691,-7.09595 -15.1922,-10.75492 -4.0428,-3.66327 -7.16215,-7.64314 -9.35525,-11.94947 -2.1906,-4.31063 -3.80556,-8.39512 -4.84262,-12.27228 -1.0383,-3.87501 -1.35375,-8.65897 -0.95312,-14.35006 0.40188,-5.69324 0.97164,-10.8618 1.70158,-15.50727 0.73425,-4.64298 1.96443,-10.75655 3.69022,-18.33514 3.12447,-13.79009 4.99221,-24.71729 5.59587,-32.78872 l 87.18228,50.33471 c -0.0492,6.83271 1.65268,13.27263 5.10143,19.31729 3.44876,6.04466 8.21435,10.82284 14.29464,14.33329 9.3551,5.40118 19.19804,6.72043 29.52698,3.95098 10.3277,-2.7673 18.19321,-8.82788 23.59563,-18.18514 5.40242,-9.35726 6.72043,-19.19804 3.95222,-29.52914 -2.7673,-10.3277 -8.83003,-18.19445 -18.18514,-23.59563 -6.08028,-3.51045 -12.6011,-5.24849 -19.56031,-5.21286 -6.95921,0.0356 -13.3873,1.78168 -19.27998,5.24067 l -143.84474,-83.0488 c 0.0514,-6.83146 -1.65268,-13.27263 -5.09928,-19.31604 -3.45091,-6.04591 -8.2165,-10.82409 -14.29678,-14.33454 -9.35296,-5.39993 -19.19589,-6.71919 -29.52484,-3.94973 -10.32894,2.76945 -18.19569,8.83218 -23.59687,18.18729 -5.40117,9.35511 -6.71828,19.19929 -3.95098,29.52699 2.7673,10.32769 8.83004,18.19445 18.18299,23.59438 6.08028,3.51045 12.6011,5.24849 19.56246,5.21411 6.95706,-0.0369 13.38731,-1.78168 19.27783,-5.24192 l 4.56236,2.63409 c 8.06757,4.65781 12.51222,10.45928 13.3361,17.40565 0.82603,6.94762 -0.74473,19.25488 -4.71137,36.92517 -4.08591,18.69232 -6.20133,33.30039 -6.34807,43.8174 -0.27353,34.76781 16.30347,61.95931 49.73349,81.57014 -0.0517,6.8371 1.65268,13.2727 5.10144,19.3173 3.44875,6.0447 8.2131,10.825 14.29338,14.3355 9.35387,5.4033 19.19714,6.717 29.52699,3.951 z M 236.4036,802.39022 c -1.3841,-5.16555 -0.72447,-10.08702 1.97549,-14.76349 2.70121,-4.67863 6.63351,-7.71062 11.79906,-9.09473 5.16215,-1.38319 10.08486,-0.72572 14.76349,1.97549 4.67863,2.70121 7.70847,6.63227 9.09257,11.79782 1.38411,5.16555 0.72448,10.08701 -1.97673,14.76564 -2.69996,4.67648 -6.63442,7.70723 -11.79781,9.09257 -5.16555,1.38411 -10.08487,0.72572 -14.7635,-1.97549 -4.67863,-2.7012 -7.71062,-6.63351 -9.09257,-11.79781 z m 202.08325,116.67281 c -1.3841,-5.16554 -0.72447,-10.08701 1.97549,-14.76349 2.70121,-4.67863 6.63351,-7.71062 11.79906,-9.09472 5.1643,-1.38195 10.08486,-0.72572 14.76349,1.97549 4.67863,2.70121 7.71062,6.63351 9.09257,11.79781 1.38195,5.16431 0.72448,10.08702 -1.97673,14.76565 -2.69997,4.67648 -6.63442,7.70722 -11.79782,9.09257 -5.16339,1.38535 -10.08486,0.72572 -14.76349,-1.97549 -4.67863,-2.70121 -7.71062,-6.63351 -9.09257,-11.79782 z m -87.27098,99.30157 c -1.3832,-5.1622 -0.72697,-10.0827 1.97424,-14.7614 2.70245,-4.68075 6.63567,-7.70934 11.79782,-9.09254 5.16215,-1.38319 10.08486,-0.72571 14.76349,1.97549 4.67863,2.70121 7.70722,6.63445 9.09257,11.79785 1.38535,5.1634 0.72696,10.0827 -1.97549,14.7635 -2.70121,4.6786 -6.63227,7.7084 -11.79657,9.0904 -5.16339,1.3853 -10.08486,0.7257 -14.76349,-1.9755 -4.67863,-2.7012 -7.71187,-6.6314 -9.09257,-11.7978 z" />
    <path id="fork-2" class="fork-monochrome"
        d="m 1.763321,921.90489 c 2.7716049,10.33019 8.832187,18.1957 18.189448,23.59812 9.352954,5.39993 19.193736,6.71794 29.524832,3.94974 10.327699,-2.7673 18.193212,-8.82789 23.595629,-18.18515 3.510452,-6.08028 5.250642,-12.59986 5.215021,-19.55906 -0.03562,-6.95921 -1.779531,-13.38606 -5.240675,-19.27998 3.510452,-6.08028 7.095951,-11.14692 10.754921,-15.19221 3.663275,-4.04279 7.643147,-7.16215 11.94947,-9.35524 4.310633,-2.19061 8.395123,-3.80556 12.272283,-4.84262 3.87501,-1.03831 8.65897,-1.35375 14.35005,-0.95312 5.69324,0.40187 10.86181,0.97163 15.50728,1.70157 4.64298,0.73425 10.75654,1.96444 18.33514,3.69022 13.79008,3.12447 24.71728,4.99222 32.78872,5.59587 l -50.33472,87.18229 c -6.8327,-0.0492 -13.27263,1.65267 -19.31729,5.10143 -6.04466,3.44875 -10.82283,8.21435 -14.33329,14.29463 -5.401168,9.35511 -6.720425,19.19804 -3.95098,29.52702 2.7673,10.3277 8.82788,18.1932 18.18515,23.5956 9.35726,5.4024 19.19804,6.7205 29.52913,3.9522 10.3277,-2.7673 18.19446,-8.83 23.59563,-18.1851 3.51045,-6.0803 5.24849,-12.6011 5.21287,-19.56033 -0.0356,-6.95921 -1.78168,-13.38731 -5.24067,-19.27999 l 83.04879,-143.84474 c 6.83146,0.0514 13.27263,-1.65267 19.31605,-5.09928 6.0459,-3.4509 10.82408,-8.2165 14.33453,-14.29678 5.39994,-9.35295 6.71919,-19.19589 3.94974,-29.52483 -2.76945,-10.32894 -8.83219,-18.1957 -18.18729,-23.59687 -9.35511,-5.40118 -19.19929,-6.71828 -29.52699,-3.95098 -10.3277,2.7673 -18.19445,8.83003 -23.59438,18.18298 -3.51046,6.08029 -5.24849,12.60111 -5.21412,19.56247 0.0369,6.95705 1.78169,13.3873 5.24192,19.27782 l -2.63408,4.56237 c -4.65781,8.06757 -10.45928,12.51222 -17.40566,13.3361 -6.94761,0.82603 -19.25487,-0.74473 -36.92516,-4.71138 -18.69232,-4.08591 -33.30039,-6.20132 -43.81741,-6.34806 -34.767805,-0.27354 -61.959301,16.30346 -81.570176,49.73349 -6.83701,-0.0517 -13.272629,1.65268 -19.31729,5.10143 -6.04466,3.44876 -10.8249914,8.21311 -14.3354437,14.29339 -5.40332702,9.35386 -6.7170349,19.19713 -3.9509793,29.52698 z M 250.32906,778.19428 c 5.16554,-1.38411 10.08701,-0.72448 14.76349,1.97549 4.67863,2.70121 7.71062,6.63351 9.09472,11.79906 1.3832,5.16215 0.72572,10.08486 -1.97549,14.76349 -2.7012,4.67863 -6.63226,7.70846 -11.79781,9.09257 -5.16555,1.3841 -10.08702,0.72447 -14.76565,-1.97673 -4.67647,-2.69997 -7.70722,-6.63442 -9.09257,-11.79782 -1.3841,-5.16555 -0.72572,-10.08486 1.97549,-14.76349 2.70121,-4.67863 6.63351,-7.71062 11.79782,-9.09257 z M 133.65624,980.27753 c 5.16555,-1.38411 10.08702,-0.72448 14.76349,1.97549 4.67863,2.7012 7.71062,6.63351 9.09473,11.79905 1.38195,5.16431 0.72572,10.08493 -1.97549,14.76353 -2.70121,4.6786 -6.63351,7.7106 -11.79782,9.0926 -5.1643,1.3819 -10.08701,0.7244 -14.76564,-1.9768 -4.67648,-2.6999 -7.70722,-6.6344 -9.09257,-11.7978 -1.38535,-5.16341 -0.72572,-10.08487 1.97549,-14.7635 2.70121,-4.67863 6.63351,-7.71062 11.79781,-9.09257 z M 34.354705,893.00654 c 5.162152,-1.38319 10.082709,-0.72696 14.76134,1.97425 4.680783,2.70245 7.709376,6.63566 9.09257,11.79781 1.383195,5.16215 0.725719,10.08486 -1.975489,14.76349 -2.701209,4.67863 -6.63442,7.70723 -11.797815,9.09258 -5.163394,1.38534 -10.082709,0.72696 -14.763492,-1.97549 -4.678631,-2.70121 -7.708467,-6.63227 -9.090418,-11.79658 -1.385347,-5.16339 -0.725719,-10.08486 1.97549,-14.76349 2.701208,-4.67863 6.631357,-7.71186 11.797814,-9.09257 z" />
    <path id="fork-3" class="fork-monochrome"
        d="m 508.45102,672.24788 c -2.77161,-10.33018 -8.83219,-18.1957 -18.18945,-23.59811 -9.35295,-5.39994 -19.19374,-6.71795 -29.52483,-3.94974 -10.3277,2.7673 -18.19321,8.82788 -23.59563,18.18514 -3.51045,6.08028 -5.25064,12.59986 -5.21502,19.55907 0.0356,6.9592 1.77953,13.38606 5.24067,19.27998 -3.51045,6.08028 -7.09595,11.14691 -10.75492,15.1922 -3.66327,4.0428 -7.64314,7.16215 -11.94947,9.35525 -4.31063,2.1906 -8.39512,3.80556 -12.27228,4.84262 -3.87501,1.0383 -8.65897,1.35375 -14.35006,0.95312 -5.69324,-0.40188 -10.8618,-0.97164 -15.50727,-1.70158 -4.64298,-0.73425 -10.75655,-1.96443 -18.33514,-3.69022 -13.79009,-3.12447 -24.71729,-4.99221 -32.78872,-5.59587 l 50.33471,-87.18228 c 6.83271,0.0492 13.27263,-1.65268 19.31729,-5.10143 6.04466,-3.44876 10.82284,-8.21435 14.33329,-14.29464 5.40118,-9.3551 6.72043,-19.19804 3.95098,-29.52698 -2.7673,-10.3277 -8.82788,-18.19321 -18.18514,-23.59563 -9.35726,-5.40242 -19.19804,-6.72043 -29.52914,-3.95222 -10.3277,2.7673 -18.19445,8.83003 -23.59563,18.18514 -3.51045,6.08028 -5.24849,12.6011 -5.21286,19.56031 0.0356,6.95921 1.78168,13.3873 5.24067,19.27998 l -83.0488,143.84474 c -6.83146,-0.0514 -13.27263,1.65268 -19.31604,5.09928 -6.04591,3.45091 -10.82409,8.2165 -14.33454,14.29678 -5.39993,9.35296 -6.71919,19.19589 -3.94973,29.52484 2.76945,10.32894 8.83218,18.19569 18.18729,23.59687 9.35511,5.40117 19.19929,6.71828 29.52699,3.95098 10.32769,-2.7673 18.19445,-8.83004 23.59438,-18.18299 3.51045,-6.08028 5.24849,-12.6011 5.21411,-19.56246 -0.0369,-6.95706 -1.78168,-13.38731 -5.24192,-19.27783 l 2.63409,-4.56236 c 4.65781,-8.06757 10.45928,-12.51222 17.40565,-13.3361 6.94762,-0.82603 19.25488,0.74473 36.92517,4.71137 18.69232,4.08591 33.30039,6.20133 43.8174,6.34807 34.76781,0.27353 61.95931,-16.30347 81.57019,-49.73349 6.83701,0.0517 13.27263,-1.65268 19.31729,-5.10144 6.04466,-3.44875 10.82499,-8.2131 14.33544,-14.29338 5.40333,-9.35387 6.71703,-19.19714 3.95098,-29.52699 z M 259.88528,815.9585 c -5.16555,1.3841 -10.08702,0.72447 -14.76349,-1.97549 -4.67863,-2.70121 -7.71062,-6.63351 -9.09473,-11.79906 -1.38319,-5.16215 -0.72572,-10.08486 1.97549,-14.76349 2.70121,-4.67863 6.63227,-7.70847 11.79782,-9.09257 5.16555,-1.38411 10.08701,-0.72448 14.76564,1.97673 4.67648,2.69996 7.70723,6.63442 9.09257,11.79781 1.38411,5.16555 0.72572,10.08487 -1.97549,14.7635 -2.7012,4.67863 -6.63351,7.71062 -11.79781,9.09257 z M 376.55809,613.87525 c -5.16554,1.3841 -10.08701,0.72447 -14.76349,-1.97549 -4.67863,-2.70121 -7.71062,-6.63351 -9.09472,-11.79906 -1.38195,-5.1643 -0.72572,-10.08486 1.97549,-14.76349 2.70121,-4.67863 6.63351,-7.71062 11.79781,-9.09257 5.16431,-1.38195 10.08702,-0.72448 14.76565,1.97673 4.67648,2.69997 7.70722,6.63442 9.09257,11.79782 1.38535,5.16339 0.72572,10.08486 -1.97549,14.76349 -2.70121,4.67863 -6.63351,7.71062 -11.79782,9.09257 z m 99.30154,87.27098 c -5.16215,1.3832 -10.0827,0.72697 -14.76134,-1.97424 -4.68078,-2.70245 -7.70937,-6.63567 -9.09257,-11.79782 -1.38319,-5.16215 -0.72571,-10.08486 1.97549,-14.76349 2.70121,-4.67863 6.63442,-7.70722 11.79782,-9.09257 5.16339,-1.38535 10.08271,-0.72696 14.76349,1.97549 4.67863,2.70121 7.70847,6.63227 9.09042,11.79657 1.38535,5.16339 0.72572,10.08486 -1.97549,14.76349 -2.70121,4.67863 -6.63136,7.71187 -11.79782,9.09257 z" />
    <path id="fork-4" class="fork-monochrome"
        d="m 130.10007,543.55397 c -10.33019,2.7716 -18.1957,8.83218 -23.59812,18.18945 -5.39993,9.35295 -6.717941,19.19373 -3.94974,29.52483 2.7673,10.3277 8.82789,18.19321 18.18515,23.59563 6.08028,3.51045 12.59986,5.25064 19.55906,5.21502 6.95921,-0.0356 13.38606,-1.77953 19.27998,-5.24068 6.08028,3.51045 11.14692,7.09595 15.19221,10.75492 4.04279,3.66328 7.16215,7.64315 9.35524,11.94947 2.19061,4.31063 3.80556,8.39513 4.84262,12.27229 1.03831,3.87501 1.35375,8.65897 0.95312,14.35005 -0.40187,5.69324 -0.97163,10.86181 -1.70157,15.50728 -0.73425,4.64298 -1.96444,10.75654 -3.69022,18.33514 -3.12447,13.79008 -4.99222,24.71728 -5.59587,32.78872 L 91.74964,680.46137 c 0.04923,-6.8327 -1.652678,-13.27263 -5.101433,-19.31729 -3.448754,-6.04466 -8.214349,-10.82283 -14.294631,-14.33329 -9.355107,-5.40117 -19.198042,-6.72043 -29.526985,-3.95098 -10.327699,2.7673 -18.193212,8.82788 -23.595629,18.18515 -5.402417,9.35726 -6.720431,19.19804 -3.952222,29.52913 2.767299,10.3277 8.830033,18.19446 18.185141,23.59563 6.080282,3.51045 12.601103,5.24849 19.56031,5.21287 6.959206,-0.0356 13.387302,-1.78168 19.27998,-5.24067 l 143.844749,83.04879 c -0.0514,6.83146 1.65267,13.27263 5.09928,19.31605 3.4509,6.0459 8.2165,10.82408 14.29678,14.33453 9.35295,5.39994 19.19589,6.71919 29.52483,3.94974 10.32894,-2.76945 18.1957,-8.83219 23.59687,-18.18729 5.40118,-9.35511 6.71828,-19.19929 3.95098,-29.52699 -2.7673,-10.3277 -8.83003,-18.19445 -18.18298,-23.59438 -6.08029,-3.51046 -12.60111,-5.24849 -19.56247,-5.21412 -6.95705,0.0369 -13.3873,1.78169 -19.27782,5.24192 l -4.56237,-2.63408 c -8.06757,-4.65781 -12.51222,-10.45928 -13.3361,-17.40566 -0.82603,-6.94761 0.74473,-19.25487 4.71138,-36.92516 4.08591,-18.69232 6.20132,-33.30039 6.34806,-43.81741 0.27354,-34.76781 -16.30346,-61.9593 -49.73349,-81.57018 0.0517,-6.83701 -1.65268,-13.27263 -5.10143,-19.31729 -3.44876,-6.04466 -8.21311,-10.82499 -14.29339,-14.33544 -9.35386,-5.40333 -19.19713,-6.71704 -29.52698,-3.95098 z m 143.71061,248.56574 c 1.38411,5.16554 0.72448,10.08701 -1.97549,14.76349 -2.70121,4.67863 -6.63351,7.71062 -11.79906,9.09472 -5.16215,1.3832 -10.08486,0.72572 -14.76349,-1.97549 -4.67863,-2.7012 -7.70846,-6.63226 -9.09257,-11.79781 -1.3841,-5.16555 -0.72447,-10.08702 1.97673,-14.76565 2.69997,-4.67647 6.63442,-7.70722 11.79782,-9.09257 5.16555,-1.3841 10.08486,-0.72572 14.76349,1.97549 4.67863,2.70121 7.71062,6.63351 9.09257,11.79782 z M 71.72743,675.44689 c 1.384105,5.16555 0.724476,10.08702 -1.975489,14.76349 -2.701209,4.67863 -6.63351,7.71062 -11.799058,9.09473 -5.164305,1.38195 -10.084862,0.72572 -14.763493,-1.97549 -4.67863,-2.70121 -7.710619,-6.63351 -9.09257,-11.79782 -1.381952,-5.1643 -0.724476,-10.08701 1.976732,-14.76564 2.699966,-4.67648 6.63442,-7.70722 11.797815,-9.09257 5.163395,-1.38535 10.084862,-0.72572 14.763493,1.97549 4.67863,2.70121 7.710619,6.63351 9.09257,11.79781 z m 87.27099,-99.30154 c 1.38319,5.16215 0.72696,10.08271 -1.97425,14.76134 -2.70245,4.68079 -6.63566,7.70938 -11.79781,9.09257 -5.16215,1.3832 -10.08486,0.72572 -14.76349,-1.97549 -4.67863,-2.70121 -7.70723,-6.63442 -9.09258,-11.79781 -1.38534,-5.1634 -0.72696,-10.08271 1.97549,-14.76349 2.70121,-4.67863 6.63227,-7.70847 11.79658,-9.09042 5.16339,-1.38535 10.08486,-0.72572 14.76349,1.97549 4.67863,2.70121 7.71186,6.63135 9.09257,11.79781 z" />
  </g>
</svg>
